# xmcd
#
# Track frame offsets:
# 150
# 22422
# 51547
# 79676
# 104743
# 128297
# 153118
# 188741
# 216213
# 250317
# 282136
# 307463
# 330262
#
# Disc length: 4787 seconds
#
# Revision: 0
# Processed by: cddbd v1.4PL0 Copyright (c) Steve Scherf et al.
# Submitted via: Audion 3.0.2 (http://www.panic.com/audion/)
#
DISCID=ba12b10d
DTITLE=ddwwdw - swef
DYEAR=1900
DGENRE=
TTITLE0=321
TTITLE1=1
TTITLE2=31
TTITLE3=2
TTITLE4=1321
TTITLE5=31
TTITLE6=31
TTITLE7=31
TTITLE8=132
TTITLE9=11
TTITLE10=3
TTITLE11=321
TTITLE12=321
EXTD=
EXTT0=
EXTT1=
EXTT2=
EXTT3=
EXTT4=
EXTT5=
EXTT6=
EXTT7=
EXTT8=
EXTT9=
EXTT10=
EXTT11=
EXTT12=
PLAYORDER=
